<mxfile host="app.diagrams.net" modified="2022-10-26T19:13:59.694Z" agent="5.0 (X11; Ubuntu)" etag="OfH13AyoQAHKcfzXRmRN" version="20.4.1" type="github">
  <diagram id="C5RBs43oDa-KdzZeNtuy" name="Page-1">
    <mxGraphModel dx="1138" dy="614" grid="0" gridSize="10" guides="1" tooltips="1" connect="1" arrows="1" fold="1" page="1" pageScale="1" pageWidth="4681" pageHeight="3300" math="0" shadow="0">
      <root>
        <mxCell id="WIyWlLk6GJQsqaUBKTNV-0" />
        <mxCell id="WIyWlLk6GJQsqaUBKTNV-1" parent="WIyWlLk6GJQsqaUBKTNV-0" />
        <mxCell id="wG_yYaYY8hXV5M6jzsUb-19" style="edgeStyle=orthogonalEdgeStyle;rounded=0;orthogonalLoop=1;jettySize=auto;html=1;exitX=0;exitY=0.5;exitDx=0;exitDy=0;entryX=0;entryY=0.5;entryDx=0;entryDy=0;" edge="1" parent="WIyWlLk6GJQsqaUBKTNV-1" source="wG_yYaYY8hXV5M6jzsUb-1" target="wG_yYaYY8hXV5M6jzsUb-4">
          <mxGeometry relative="1" as="geometry">
            <Array as="points">
              <mxPoint x="223" y="322" />
              <mxPoint x="223" y="406" />
            </Array>
          </mxGeometry>
        </mxCell>
        <mxCell id="wG_yYaYY8hXV5M6jzsUb-20" style="edgeStyle=orthogonalEdgeStyle;rounded=0;orthogonalLoop=1;jettySize=auto;html=1;exitX=0;exitY=0.5;exitDx=0;exitDy=0;entryX=0;entryY=0.5;entryDx=0;entryDy=0;" edge="1" parent="WIyWlLk6GJQsqaUBKTNV-1" source="wG_yYaYY8hXV5M6jzsUb-1" target="wG_yYaYY8hXV5M6jzsUb-2">
          <mxGeometry relative="1" as="geometry">
            <Array as="points">
              <mxPoint x="223" y="322" />
              <mxPoint x="223" y="482" />
            </Array>
          </mxGeometry>
        </mxCell>
        <mxCell id="wG_yYaYY8hXV5M6jzsUb-21" style="edgeStyle=orthogonalEdgeStyle;rounded=0;orthogonalLoop=1;jettySize=auto;html=1;exitX=0;exitY=0.5;exitDx=0;exitDy=0;entryX=0;entryY=0.5;entryDx=0;entryDy=0;" edge="1" parent="WIyWlLk6GJQsqaUBKTNV-1" source="wG_yYaYY8hXV5M6jzsUb-1" target="wG_yYaYY8hXV5M6jzsUb-6">
          <mxGeometry relative="1" as="geometry">
            <Array as="points">
              <mxPoint x="223" y="322" />
              <mxPoint x="223" y="555" />
            </Array>
          </mxGeometry>
        </mxCell>
        <mxCell id="wG_yYaYY8hXV5M6jzsUb-1" value="Сайт института/Лэндинг&lt;br&gt;(Tilda на данный момент)" style="rounded=0;whiteSpace=wrap;html=1;" vertex="1" parent="WIyWlLk6GJQsqaUBKTNV-1">
          <mxGeometry x="301" y="292" width="186" height="60" as="geometry" />
        </mxCell>
        <mxCell id="wG_yYaYY8hXV5M6jzsUb-26" style="edgeStyle=orthogonalEdgeStyle;rounded=0;orthogonalLoop=1;jettySize=auto;html=1;exitX=1;exitY=0.5;exitDx=0;exitDy=0;entryX=0;entryY=0.5;entryDx=0;entryDy=0;" edge="1" parent="WIyWlLk6GJQsqaUBKTNV-1" source="wG_yYaYY8hXV5M6jzsUb-2" target="wG_yYaYY8hXV5M6jzsUb-3">
          <mxGeometry relative="1" as="geometry" />
        </mxCell>
        <mxCell id="wG_yYaYY8hXV5M6jzsUb-29" style="edgeStyle=orthogonalEdgeStyle;rounded=0;orthogonalLoop=1;jettySize=auto;html=1;exitX=1;exitY=0.5;exitDx=0;exitDy=0;entryX=0;entryY=0.5;entryDx=0;entryDy=0;" edge="1" parent="WIyWlLk6GJQsqaUBKTNV-1" source="wG_yYaYY8hXV5M6jzsUb-2" target="wG_yYaYY8hXV5M6jzsUb-27">
          <mxGeometry relative="1" as="geometry">
            <Array as="points">
              <mxPoint x="544" y="482" />
              <mxPoint x="544" y="628" />
            </Array>
          </mxGeometry>
        </mxCell>
        <mxCell id="wG_yYaYY8hXV5M6jzsUb-30" style="edgeStyle=orthogonalEdgeStyle;rounded=0;orthogonalLoop=1;jettySize=auto;html=1;exitX=1;exitY=0.5;exitDx=0;exitDy=0;entryX=0;entryY=0.5;entryDx=0;entryDy=0;" edge="1" parent="WIyWlLk6GJQsqaUBKTNV-1" source="wG_yYaYY8hXV5M6jzsUb-2" target="wG_yYaYY8hXV5M6jzsUb-8">
          <mxGeometry relative="1" as="geometry">
            <Array as="points">
              <mxPoint x="544" y="482" />
              <mxPoint x="544" y="555" />
            </Array>
          </mxGeometry>
        </mxCell>
        <mxCell id="wG_yYaYY8hXV5M6jzsUb-2" value="LMS(Образовательная среда)" style="rounded=0;whiteSpace=wrap;html=1;" vertex="1" parent="WIyWlLk6GJQsqaUBKTNV-1">
          <mxGeometry x="301" y="452" width="186" height="60" as="geometry" />
        </mxCell>
        <mxCell id="wG_yYaYY8hXV5M6jzsUb-3" value="&lt;div&gt;Канбан доска(Jira, todoist?)&lt;/div&gt;" style="rounded=0;whiteSpace=wrap;html=1;" vertex="1" parent="WIyWlLk6GJQsqaUBKTNV-1">
          <mxGeometry x="623" y="452" width="186" height="60" as="geometry" />
        </mxCell>
        <mxCell id="wG_yYaYY8hXV5M6jzsUb-22" style="edgeStyle=orthogonalEdgeStyle;rounded=0;orthogonalLoop=1;jettySize=auto;html=1;exitX=1;exitY=0.5;exitDx=0;exitDy=0;" edge="1" parent="WIyWlLk6GJQsqaUBKTNV-1" source="wG_yYaYY8hXV5M6jzsUb-4" target="wG_yYaYY8hXV5M6jzsUb-18">
          <mxGeometry relative="1" as="geometry" />
        </mxCell>
        <mxCell id="wG_yYaYY8hXV5M6jzsUb-4" value="СТУД Офис&lt;br&gt;" style="rounded=0;whiteSpace=wrap;html=1;" vertex="1" parent="WIyWlLk6GJQsqaUBKTNV-1">
          <mxGeometry x="301" y="376" width="186" height="60" as="geometry" />
        </mxCell>
        <mxCell id="wG_yYaYY8hXV5M6jzsUb-15" style="edgeStyle=orthogonalEdgeStyle;rounded=0;orthogonalLoop=1;jettySize=auto;html=1;exitX=0.5;exitY=1;exitDx=0;exitDy=0;entryX=0.5;entryY=0;entryDx=0;entryDy=0;" edge="1" parent="WIyWlLk6GJQsqaUBKTNV-1" source="wG_yYaYY8hXV5M6jzsUb-5" target="wG_yYaYY8hXV5M6jzsUb-1">
          <mxGeometry relative="1" as="geometry" />
        </mxCell>
        <mxCell id="wG_yYaYY8hXV5M6jzsUb-16" style="edgeStyle=orthogonalEdgeStyle;rounded=0;orthogonalLoop=1;jettySize=auto;html=1;exitX=0.5;exitY=1;exitDx=0;exitDy=0;entryX=0.5;entryY=0;entryDx=0;entryDy=0;" edge="1" parent="WIyWlLk6GJQsqaUBKTNV-1" source="wG_yYaYY8hXV5M6jzsUb-5" target="wG_yYaYY8hXV5M6jzsUb-7">
          <mxGeometry relative="1" as="geometry" />
        </mxCell>
        <mxCell id="wG_yYaYY8hXV5M6jzsUb-5" value="Единая среда ИЦТ" style="rounded=0;whiteSpace=wrap;html=1;" vertex="1" parent="WIyWlLk6GJQsqaUBKTNV-1">
          <mxGeometry x="301" y="182" width="528" height="60" as="geometry" />
        </mxCell>
        <mxCell id="wG_yYaYY8hXV5M6jzsUb-6" value="&lt;div&gt;Доп. Образовательные курсы&lt;/div&gt;&lt;div&gt;?&lt;br&gt;&lt;/div&gt;" style="rounded=0;whiteSpace=wrap;html=1;" vertex="1" parent="WIyWlLk6GJQsqaUBKTNV-1">
          <mxGeometry x="301" y="525" width="186" height="60" as="geometry" />
        </mxCell>
        <mxCell id="wG_yYaYY8hXV5M6jzsUb-23" style="edgeStyle=orthogonalEdgeStyle;rounded=0;orthogonalLoop=1;jettySize=auto;html=1;exitX=1;exitY=0.5;exitDx=0;exitDy=0;entryX=1;entryY=0.5;entryDx=0;entryDy=0;" edge="1" parent="WIyWlLk6GJQsqaUBKTNV-1" source="wG_yYaYY8hXV5M6jzsUb-7" target="wG_yYaYY8hXV5M6jzsUb-18">
          <mxGeometry relative="1" as="geometry">
            <Array as="points">
              <mxPoint x="890" y="322" />
              <mxPoint x="890" y="406" />
            </Array>
          </mxGeometry>
        </mxCell>
        <mxCell id="wG_yYaYY8hXV5M6jzsUb-24" style="edgeStyle=orthogonalEdgeStyle;rounded=0;orthogonalLoop=1;jettySize=auto;html=1;exitX=1;exitY=0.5;exitDx=0;exitDy=0;entryX=1;entryY=0.5;entryDx=0;entryDy=0;" edge="1" parent="WIyWlLk6GJQsqaUBKTNV-1" source="wG_yYaYY8hXV5M6jzsUb-7" target="wG_yYaYY8hXV5M6jzsUb-3">
          <mxGeometry relative="1" as="geometry">
            <Array as="points">
              <mxPoint x="890" y="322" />
              <mxPoint x="890" y="482" />
            </Array>
          </mxGeometry>
        </mxCell>
        <mxCell id="wG_yYaYY8hXV5M6jzsUb-25" style="edgeStyle=orthogonalEdgeStyle;rounded=0;orthogonalLoop=1;jettySize=auto;html=1;exitX=1;exitY=0.5;exitDx=0;exitDy=0;entryX=1;entryY=0.5;entryDx=0;entryDy=0;" edge="1" parent="WIyWlLk6GJQsqaUBKTNV-1" source="wG_yYaYY8hXV5M6jzsUb-7" target="wG_yYaYY8hXV5M6jzsUb-8">
          <mxGeometry relative="1" as="geometry">
            <Array as="points">
              <mxPoint x="890" y="322" />
              <mxPoint x="890" y="555" />
            </Array>
          </mxGeometry>
        </mxCell>
        <mxCell id="wG_yYaYY8hXV5M6jzsUb-7" value="Мобильное приложение(IOS/Android)" style="rounded=0;whiteSpace=wrap;html=1;" vertex="1" parent="WIyWlLk6GJQsqaUBKTNV-1">
          <mxGeometry x="623" y="292" width="186" height="60" as="geometry" />
        </mxCell>
        <mxCell id="wG_yYaYY8hXV5M6jzsUb-8" value="Расписания(1С?)" style="rounded=0;whiteSpace=wrap;html=1;" vertex="1" parent="WIyWlLk6GJQsqaUBKTNV-1">
          <mxGeometry x="623" y="525" width="186" height="60" as="geometry" />
        </mxCell>
        <mxCell id="wG_yYaYY8hXV5M6jzsUb-18" value="Яндекс формы(Возможно сделать API) " style="rounded=0;whiteSpace=wrap;html=1;" vertex="1" parent="WIyWlLk6GJQsqaUBKTNV-1">
          <mxGeometry x="623" y="376" width="186" height="60" as="geometry" />
        </mxCell>
        <mxCell id="wG_yYaYY8hXV5M6jzsUb-27" value="Moodle" style="rounded=0;whiteSpace=wrap;html=1;" vertex="1" parent="WIyWlLk6GJQsqaUBKTNV-1">
          <mxGeometry x="623" y="598" width="186" height="60" as="geometry" />
        </mxCell>
      </root>
    </mxGraphModel>
  </diagram>
</mxfile>
